# xmcd
#
# Track frame offsets:
#	151
#	15111
#	34406
#	52065
#	68328
#	83369
#	103076
#	118503
#	130637
#	145598
#	160029
#	173604
#	192130
#	202923
#	216178
#	236220
#	251183
#	268841
#	284175
#	298089
#	312544
#
# Disc length: 4313 seconds
#
# Revision: 0
# Processed by: cddbd v1.5.2PL0 Copyright (c) Steve Scherf et al.
# Submitted via: dBpowerAMP V4.0
#
DISCID=3110d715
DTITLE=Alejandro Fernandez - Exitos
DYEAR=2005
DGENRE=
TTITLE0=Loco
TTITLE1=Me estoy enamorando
TTITLE2=Si he sabido
TTITLE3=Como quien pierde una estrella
TTITLE4=Mentiroso
TTITLE5=No se olvidar
TTITLE6=La mitad que me faltaba
TTITLE7=Porque
TTITLE8=Como el sol y el trigo
TTITLE9=Llorando penas
TTITLE10=Avisame
TTITLE11=Si tu supieras
TTITLE12=Moño negro
TTITLE13=Esta noche
TTITLE14=Yo naci para amarte
TTITLE15=Abrazame
TTITLE16=La lluvia sigue callendo
TTITLE17=Que pregunta muchacho
TTITLE18=Noche triste
TTITLE19=Que bueno
TTITLE20=Que digan misa
EXTD=Mix - Alejandro Fernandez
EXTT0=
EXTT1=
EXTT2=
EXTT3=
EXTT4=
EXTT5=
EXTT6=
EXTT7=
EXTT8=
EXTT9=
EXTT10=
EXTT11=
EXTT12=
EXTT13=
EXTT14=
EXTT15=
EXTT16=
EXTT17=
EXTT18=
EXTT19=
EXTT20=
PLAYORDER=
